# xmcd
#
# Track frame offsets:
#	150
#	13055
#	27037
#	44247
#	58152
#	74700
#	84015
#	94020
#	105417
#	117787
#	136072
#	149515
#
# Disc length: 2306 seconds
#
# Revision: 8
# Processed by: cddbd v1.5.2PL0 Copyright (c) Steve Scherf et al.
# Submitted via: audiograbber 1.83.01
#
DISCID=a209000c
DTITLE=Commander Cody and His Lost Planet Airmen - Lost In The Ozone
DYEAR=1971
DGENRE=CountryRock
TTITLE0=Back To Tennessee
TTITLE1=Wine Do Yer Stuff
TTITLE2=Seeds And Stems (Again)
TTITLE3=Daddy's Gonna Treat You Right
TTITLE4=Family Bible
TTITLE5=My Home In My Hand
TTITLE6=Lost In The Ozone
TTITLE7=Midnight Shift
TTITLE8=Hot Rod Lincoln
TTITLE9=What's The Matter Now? [live]
TTITLE10=20 Flight Rock [live]
TTITLE11=Beat Me Daddy, Eight To The Bar [live]
EXTD=
EXTT0=
EXTT1=
EXTT2=
EXTT3=
EXTT4=
EXTT5=
EXTT6=
EXTT7=
EXTT8=
EXTT9=
EXTT10=
EXTT11=
PLAYORDER=
